<svg width="133" height="77" viewBox="0 0 133 77" fill="none" xmlns="http://www.w3.org/2000/svg">
<path d="M16.1585 62.1667C15.9085 61.4948 15.0218 61.4167 13.4983 61.9323C13.7093 62.7682 14.0413 63.2995 14.4944 63.526C14.9554 63.7448 15.4085 63.7409 15.8538 63.5143C16.3069 63.2878 16.4085 62.8385 16.1585 62.1667ZM13.8265 47.2253C14.6936 47.3581 15.7601 47.901 17.0257 48.8542C18.2913 49.8073 19.389 49.7214 20.3186 48.5964C21.2561 47.4714 22.2796 46.9948 23.389 47.1667C24.4983 47.3385 25.4632 48.0182 26.2835 49.2057C27.1038 50.3854 27.7171 51.6237 28.1233 52.9206C26.6077 51.1003 25.3147 49.8542 24.2444 49.1823C23.1741 48.5026 22.2327 48.6471 21.4202 49.6159C20.6155 50.5846 19.9827 51.151 19.5218 51.3151C19.0686 51.4714 18.5804 51.4753 18.0569 51.3268C17.5335 51.1784 16.5843 50.6354 15.2093 49.6979C13.8421 48.7526 12.7483 48.5339 11.928 49.0417C11.1077 49.5417 10.971 50.5846 11.5179 52.1706C12.0647 53.7487 12.4046 54.9049 12.5374 55.6393C10.1702 52.5534 9.33427 50.3073 10.0296 48.901C10.7327 47.4948 11.9983 46.9362 13.8265 47.2253ZM11.5296 59.8229C11.5218 59.3307 11.6233 58.6003 11.8343 57.6315C12.1077 55.7487 13.2601 54.3581 15.2913 53.4596C17.3226 52.5612 19.5413 52.4245 21.9476 53.0495C24.3616 53.6745 25.7444 54.9674 26.096 56.9284C26.4476 58.8815 26.471 60.5807 26.1663 62.026C25.8694 63.4714 25.2249 64.4635 24.2327 65.0026C24.4749 63.8542 24.6507 62.7956 24.7601 61.8268C24.8694 60.8503 24.7718 59.4089 24.4671 57.5026C24.1702 55.5964 22.3968 54.6393 19.1468 54.6315C15.8968 54.6159 14.0101 55.7057 13.4866 57.901C13.346 58.2995 13.2522 58.6823 13.2054 59.0495C13.1663 59.4089 13.1858 59.9323 13.264 60.6198C14.7874 60.0651 15.9515 60.0964 16.7561 60.7135C17.5608 61.3307 17.8929 62.0495 17.7522 62.8698C17.6194 63.6901 17.2757 64.2643 16.721 64.5924C16.1663 64.9128 15.5179 65.0495 14.7757 65.0026C14.0335 64.9479 13.389 64.6549 12.8421 64.1237C12.303 63.5846 11.9515 62.8542 11.7874 61.9323C11.6233 61.0104 11.5374 60.3073 11.5296 59.8229ZM20.9515 73.8971C20.803 74.7956 21.2249 75.2839 22.2171 75.362C23.2015 75.4479 23.721 74.8971 23.7757 73.7096L23.764 67.6979C23.9983 66.2057 24.9241 65.5456 26.5413 65.7174C28.1585 65.8971 28.3265 66.0378 27.0452 66.1393C25.764 66.2487 25.1741 67.1003 25.2757 68.694V74.1432C25.2913 74.9714 25.0374 75.6081 24.514 76.0534C23.9827 76.4987 23.2444 76.6979 22.2991 76.651C21.3538 76.7214 20.6116 76.487 20.0726 75.9479C19.5257 75.4089 19.264 74.7526 19.2874 73.9792L19.264 67.4753C18.2952 66.694 18.303 66.1081 19.2874 65.7174C20.3108 65.5612 20.8616 66.0924 20.9397 67.3112L20.9515 73.8971ZM31.1116 53.2135L31.0999 56.2839C31.0686 58.3151 31.139 60.0182 31.3108 61.3932C31.4905 62.7682 32.0647 63.4245 33.0335 63.362C34.0101 63.2917 35.1038 63.0846 36.3147 62.7409C37.5257 62.3971 38.764 62.526 40.0296 63.1276C41.303 63.7292 41.9476 63.1276 41.9632 61.3229C41.9866 59.5104 42.0022 57.7526 42.0101 56.0495C42.0257 54.3464 41.6155 53.2135 40.7796 52.651C39.9436 52.0885 39.1546 51.4909 38.4124 50.8581C37.6702 50.2174 37.4944 49.4479 37.8851 48.5495C38.2835 47.6432 38.9905 47.1862 40.0061 47.1784C41.0296 47.1706 41.928 47.3737 42.7015 47.7878C43.4749 48.194 44.0999 48.6706 44.5765 49.2174C45.053 49.7643 45.4085 50.6159 45.6429 51.7721C43.7444 49.9753 42.1077 49.0495 40.7327 48.9948C39.428 49.1745 39.264 49.6003 40.2405 50.2721C41.2249 50.944 42.0491 51.5729 42.7132 52.1589C43.3851 52.737 43.7249 53.8854 43.7327 55.6042C43.7405 57.3229 43.7405 59.4167 43.7327 61.8854C43.7327 64.3542 42.5608 65.3815 40.2171 64.9674C38.6858 64.1393 37.3069 63.9714 36.0804 64.4635C34.8538 64.9557 33.5374 65.1198 32.1311 64.9557C30.7327 64.7839 29.9202 63.8307 29.6936 62.0964C29.4671 60.3542 29.389 58.0768 29.4593 55.2643L29.389 53.1198H29.4124C28.5452 52.2995 27.9436 51.6432 27.6077 51.151C27.1936 50.5495 27.1233 49.819 27.3968 48.9596C27.678 48.0924 28.4007 47.5299 29.5647 47.2721C30.7366 47.0065 31.846 47.0182 32.8929 47.3073C33.9476 47.5964 34.7952 48.112 35.4358 48.8542C36.0843 49.5964 36.553 50.4245 36.8421 51.3385C35.0296 49.9089 33.7093 49.0924 32.8811 48.8893C32.0608 48.6862 31.1976 48.7174 30.2913 48.9831C29.3851 49.2487 28.9515 49.6081 28.9905 50.0612C29.0374 50.5143 29.4749 51.0807 30.303 51.7604C30.8343 52.1354 31.1038 52.6198 31.1116 53.2135ZM60.8421 62.3776L65.9397 47.4362H68.4241V65.0143H66.6663V50.7409L61.7913 65.0143H59.8929L55.0179 50.7409V65.0143H53.2601V47.4362H55.7444L60.8421 62.3776ZM80.1429 57.7487C79.4632 57.9518 78.5061 58.1276 77.2718 58.276C74.3421 58.7682 72.8772 59.7604 72.8772 61.2526C72.8772 62.7448 73.7366 63.4909 75.4554 63.4909C77.1194 63.4909 78.6819 62.5729 80.1429 60.737V57.7487ZM72.7601 57.0924C71.6663 56.0456 71.3538 54.9362 71.8226 53.7643C72.2913 52.5924 73.8147 51.8893 76.3929 51.6549C79.9085 51.6549 81.6663 52.8659 81.6663 55.2878V61.0299C81.7835 63.7643 81.2757 65.0924 80.1429 65.0143V62.8346C78.6819 64.2878 77.1194 65.0143 75.4554 65.0143C72.721 65.0143 71.3538 63.7604 71.3538 61.2526C71.1976 58.8151 73.0647 57.3424 76.9554 56.8346C79.0804 56.569 80.1429 56.2096 80.1429 55.7565V55.2878C80.1429 54.0378 78.8929 53.4128 76.3929 53.4128C73.7366 53.4128 72.5257 54.6393 72.7601 57.0924ZM85.639 53.4128H83.7522V51.6549H85.639V47.4362H87.3968V51.6549H89.846V53.4128H87.3968V61.6159C87.3968 62.7096 88.2132 63.2565 89.846 63.2565V65.0143C87.0413 65.0143 85.639 63.8815 85.639 61.6159V53.4128ZM101.576 61.4049C101.342 62.1706 101.01 62.8151 100.58 63.3385C99.6507 64.4557 98.2561 65.0143 96.3968 65.0143C94.5452 65.0143 93.1546 64.4557 92.2249 63.3385C91.2952 62.2292 90.8304 60.5612 90.8304 58.3346C90.8304 56.1081 91.2952 54.4362 92.2249 53.319C93.1546 52.2096 94.5452 51.6549 96.3968 51.6549C98.2561 51.6549 99.6507 52.2096 100.58 53.319C100.76 53.5456 100.924 53.7956 101.073 54.069L99.5374 54.9596C99.4593 54.8268 99.3811 54.7057 99.303 54.5964C98.6936 53.8073 97.7249 53.4128 96.3968 53.4128C95.0686 53.4128 94.1038 53.8073 93.5022 54.5964C92.8929 55.3854 92.5882 56.6315 92.5882 58.3346C92.5882 60.0299 92.8929 61.2721 93.5022 62.0612C94.1038 62.8581 95.0686 63.2565 96.3968 63.2565C97.7249 63.2565 98.6936 62.8581 99.303 62.0612C99.5452 61.7487 99.7366 61.3581 99.8772 60.8893L101.576 61.4049ZM112.639 65.0143V56.694C112.639 54.5065 111.623 53.4128 109.592 53.4128C108.522 53.4128 107.588 53.8854 106.791 54.8307C106.002 55.776 105.608 56.4362 105.608 56.8112V65.0143H103.85V47.4362H105.608V53.9635C106.826 52.4245 108.155 51.6549 109.592 51.6549C112.795 51.6549 114.397 53.3346 114.397 56.694V65.0143H112.639ZM125.823 57.7487C125.143 57.9518 124.186 58.1276 122.951 58.276C120.022 58.7682 118.557 59.7604 118.557 61.2526C118.557 62.7448 119.416 63.4909 121.135 63.4909C122.799 63.4909 124.362 62.5729 125.823 60.737V57.7487ZM118.44 57.0924C117.346 56.0456 117.033 54.9362 117.502 53.7643C117.971 52.5924 119.494 51.8893 122.073 51.6549C125.588 51.6549 127.346 52.8659 127.346 55.2878V61.0299C127.463 63.7643 126.955 65.0924 125.823 65.0143V62.8346C124.362 64.2878 122.799 65.0143 121.135 65.0143C118.401 65.0143 117.033 63.7604 117.033 61.2526C116.877 58.8151 118.744 57.3424 122.635 56.8346C124.76 56.569 125.823 56.2096 125.823 55.7565V55.2878C125.823 54.0378 124.573 53.4128 122.073 53.4128C119.416 53.4128 118.205 54.6393 118.44 57.0924Z" fill="#3A8869"/>
<path d="M1 46.307C2.50799 45.5966 5.4879 44.2451 8.55374 42.0367C10.9665 40.2987 14.9727 36.9965 21.7245 30.1435C28.4763 23.2905 37.8148 12.9073 42.8136 7.40112C48.1493 1.5238 48.8579 1.13809 49.4576 1.01832C50.1181 0.886393 50.6318 1.45273 52.2794 3.18624C53.7579 4.74185 56.5907 7.5942 66.1757 13.7142C75.7607 19.8342 92.0248 29.1161 103.553 35.058C115.081 40.9998 121.379 43.3203 127.869 45.7111" stroke="#3A8869" stroke-width="2" stroke-linecap="round"/>
<path d="M7.83605 45.9777C7.83605 46.0077 7.83605 46.0377 7.84801 46.1432C7.85996 46.2487 7.88388 46.4288 7.71683 49.8983C7.54979 53.3678 7.19106 60.1212 6.67651 67.4431" stroke="#3A8869" stroke-width="2" stroke-linecap="round"/>
</svg>
